<svg width="37" height="37" viewBox="0 0 37 37" fill="none" xmlns="http://www.w3.org/2000/svg">
<g clip-path="url(#clip0_1_3)">
<path d="M31.45 0H5.55C2.48482 0 0 2.48482 0 5.55V31.45C0 34.5152 2.48482 37 5.55 37H31.45C34.5152 37 37 34.5152 37 31.45V5.55C37 2.48482 34.5152 0 31.45 0Z" fill="white"/>
<path d="M27.4781 13.5793L13.2924 29.0586H8.08927C7.72794 29.0586 7.43888 28.6973 7.51115 28.3359L10.9799 6.36719C11.0522 5.86133 11.4858 5.5 11.9916 5.5H20.808C26.8783 5.7168 28.5404 8.82422 27.4565 13.5938L27.4781 13.5793Z" fill="#002C8A"/>
<path d="M27.7094 12.1484C29.8774 13.3047 30.3832 15.4727 29.6606 18.3633C28.7211 22.627 25.9028 24.4336 21.7836 24.5059L20.6274 24.5781C20.1938 24.5781 19.9047 24.8672 19.8324 25.3008L18.893 31.0098C18.8207 31.5156 18.3871 31.877 17.8813 31.877H13.5453C13.184 31.877 12.8949 31.5156 12.9672 31.1543L14.557 20.8203C14.6293 20.459 27.7094 12.1484 27.7094 12.1484Z" fill="#009BE1"/>
<path d="M14.4703 21.3262L15.9156 12.1484C15.9631 11.9311 16.0808 11.7354 16.2506 11.5917C16.4204 11.448 16.6329 11.3643 16.8551 11.3535H23.7926C25.4547 11.3535 26.6832 11.6426 27.6949 12.1484C27.3336 15.3281 25.816 20.459 18.4449 20.6035H15.2653C14.9039 20.6035 14.5426 20.8926 14.4703 21.3262Z" fill="#001F6B"/>
</g>
<defs>
<clipPath id="clip0_1_3">
<rect width="37" height="37" fill="white"/>
</clipPath>
</defs>
</svg>
